<svg width="994" height="123" viewBox="0 0 994 123" fill="none" xmlns="http://www.w3.org/2000/svg">
<path d="M66.05 122.68H0.0500183V96.8705L66.05 50.6705V122.68ZM75 22.5605L121 54.7905V1.73047H0V75.0204L75 22.5605ZM83.94 50.6705V122.67H121.03V76.6705L83.94 50.6705Z" fill="#232322"/>
<path d="M968.03 0H936.08V12.78H968.03V0Z" fill="#232322"/>
<path d="M211.27 42.1196V108.55H192.12V24.7695H256.75V42.1196H211.27Z" fill="#232322"/>
<path d="M264.82 105.91C269.61 97.2995 272.01 83.9095 272.01 65.5795V24.7695H342.62V108.55H323.45V42.1196H291.15V63.7896C291.15 85.2096 288.88 100.05 284.33 108.55H264.82V105.91Z" fill="#232322"/>
<path d="M387.971 24.7695H415.451L448.451 108.55H427.451L420.991 91.1895H382.451L375.991 108.55H355.051L387.971 24.7695ZM414.531 73.8395L401.731 39.6096L388.921 73.8395H414.531Z" fill="#232322"/>
<path d="M460.9 24.7695H503.98C520.26 24.7695 530.91 33.2695 530.91 46.3095C530.91 55.4095 526.37 61.7495 517.15 65.4595C527.68 68.4595 533.9 75.2795 533.9 85.2095C533.9 100.05 522.77 108.55 504.58 108.55H460.9V24.7695ZM503.39 57.0795C509.25 57.0795 512.39 54.2095 512.39 49.3095C512.39 44.9995 509.16 42.1196 503.39 42.1196H480.05V57.1196L503.39 57.0795ZM505.78 91.1895C511.64 91.1895 515.35 87.9595 515.35 82.8195C515.35 77.6795 511.64 74.4395 505.78 74.4395H480.05V91.1895H505.78Z" fill="#232322"/>
<path d="M589.73 92.3908C603.97 92.3908 612.46 83.2908 615.22 69.2908L632.81 76.3508C627.9 96.9408 612.58 109.741 589.61 109.741C562.92 109.741 545.68 91.3108 545.68 66.6608C545.21 42.6008 565.07 23.1008 589.61 23.5708C611.75 23.5708 625.75 35.7808 629.34 51.4608L611.75 59.3408C609.35 47.7308 600.86 40.9108 589.25 40.9108C575.84 40.9108 564.83 51.0808 564.83 66.6408C564.83 82.4608 576.32 92.3908 589.73 92.3908Z" fill="#232322"/>
<path d="M714.87 42.1196H686.15V108.55H667V42.1196H638.28V24.7695H714.87V42.1196Z" fill="#232322"/>
<path d="M747.39 108.55H728.24V24.7695H768.33C787 24.7695 796.46 36.8596 796.46 50.9796C796.46 64.6196 786.76 77.4296 768.33 77.4296H747.39V108.55ZM767.14 60.0795C773.36 60.0795 777.31 56.8495 777.31 51.0795C777.31 45.3095 773.36 42.0795 767.14 42.0795H747.39V60.0795H767.14Z" fill="#232322"/>
<path d="M896.98 66.6605C897.46 90.0005 876.75 110.341 852.7 109.741C828.64 110.341 807.94 90.0005 808.42 66.6605C807.94 43.3205 828.64 23.1005 852.7 23.5705C876.75 23.1005 897.45 43.3405 896.98 66.6605ZM877.83 66.6605C877.83 51.3405 866.7 41.5305 852.7 41.5305C838.7 41.5305 827.57 51.3405 827.57 66.6605C827.57 81.9805 838.7 91.7905 852.7 91.7905C866.7 91.7905 877.83 81.9805 877.83 66.6605V66.6605Z" fill="#232322"/>
<path d="M944.04 108.55H911.25V24.7695H930.45V95.7695L961.09 24.7695H993.88V108.55H974.73V37.5496L944.04 108.55Z" fill="#232322"/>
</svg>