<?xml version="1.0" encoding="UTF-8" standalone="no"?>
<!-- Created with Inkscape (http://www.inkscape.org/) -->
<svg xmlns:svg="http://www.w3.org/2000/svg" xmlns="http://www.w3.org/2000/svg" xmlns:inkscape="http://www.inkscape.org/namespaces/inkscape" version="1.0" width="956.69287" height="307.20471" id="svg2">
  <defs id="defs4">
    <inkscape:perspective id="perspective10"/>
    <inkscape:perspective id="perspective2395"/>
    <clipPath id="clipPath2697">
      <path d="M 0,842.04 L 594.96,842.04 L 594.96,0 L 0,0 L 0,842.04 z" id="path2699"/>
    </clipPath>
    <clipPath id="clipPath2689">
      <path d="M -0.138,841.945 L 595.138,841.945 L 595.138,0.055 L -0.138,0.055 L -0.138,841.945 z" id="path2691"/>
    </clipPath>
    <clipPath id="clipPath2681">
      <path d="M 0,842.04 L 594.96,842.04 L 594.96,0 L 0,0 L 0,842.04 z" id="path2683"/>
    </clipPath>
    <clipPath id="clipPath2673">
      <path d="M -0.138,841.945 L 595.138,841.945 L 595.138,0.055 L -0.138,0.055 L -0.138,841.945 z" id="path2675"/>
    </clipPath>
    <clipPath id="clipPath2665">
      <path d="M 0,842.04 L 594.96,842.04 L 594.96,0 L 0,0 L 0,842.04 z" id="path2667"/>
    </clipPath>
    <clipPath id="clipPath2657">
      <path d="M -0.138,841.945 L 595.138,841.945 L 595.138,0.055 L -0.138,0.055 L -0.138,841.945 z" id="path2659"/>
    </clipPath>
    <clipPath id="clipPath2649">
      <path d="M 0,842.04 L 594.96,842.04 L 594.96,0 L 0,0 L 0,842.04 z" id="path2651"/>
    </clipPath>
    <clipPath id="clipPath2641">
      <path d="M -0.138,841.945 L 595.138,841.945 L 595.138,0.055 L -0.138,0.055 L -0.138,841.945 z" id="path2643"/>
    </clipPath>
    <clipPath id="clipPath2633">
      <path d="M 0,842.04 L 594.96,842.04 L 594.96,0 L 0,0 L 0,842.04 z" id="path2635"/>
    </clipPath>
    <clipPath id="clipPath2625">
      <path d="M -0.138,841.945 L 595.138,841.945 L 595.138,0.055 L -0.138,0.055 L -0.138,841.945 z" id="path2627"/>
    </clipPath>
    <clipPath id="clipPath2617">
      <path d="M 0,842.04 L 594.96,842.04 L 594.96,0 L 0,0 L 0,842.04 z" id="path2619"/>
    </clipPath>
    <clipPath id="clipPath2609">
      <path d="M -0.138,841.945 L 595.138,841.945 L 595.138,0.055 L -0.138,0.055 L -0.138,841.945 z" id="path2611"/>
    </clipPath>
    <clipPath id="clipPath2601">
      <path d="M 0,842.04 L 594.96,842.04 L 594.96,0 L 0,0 L 0,842.04 z" id="path2603"/>
    </clipPath>
    <clipPath id="clipPath2593">
      <path d="M -0.138,841.945 L 595.138,841.945 L 595.138,0.055 L -0.138,0.055 L -0.138,841.945 z" id="path2595"/>
    </clipPath>
    <clipPath id="clipPath2579">
      <path d="M 15.209,817.788 L 151.993,817.788 L 151.993,787.252 L 15.209,787.252 L 15.209,817.788 z" id="path2581"/>
    </clipPath>
    <inkscape:perspective id="perspective2559"/>
  </defs>
  <g transform="translate(13.340081,-38.737594)" id="layer1">
    <g id="g2506">
      <path d="M 255.88648,76.803635 L 22.092969,76.803635 L 22.092969,310.46956 L 255.88648,310.46956 L 255.88648,76.803635 z" id="path2443" style="fill:#ed1a3a;fill-opacity:1;fill-rule:nonzero;stroke:none"/>
      <path d="M 231.46875,61.34375 C 226.09598,61.34375 222.02718,64.906299 220,69.1875 L 190.5625,117.625 C 188.52113,122.10467 187.03124,127.13736 187.03125,130.46875 C 187.03125,133.44575 187.4397,136.07587 188.53125,138.5 L 220.375,214.53125 L 96.71875,214.53125 C 92.26743,214.53125 88.593748,210.06277 88.59375,205.9375 L 88.59375,74.96875 C 87.65812,57.064241 61.910795,57.073874 61.34375,75.53125 L 61.90625,214.53125 C 61.90625,229.64305 73.595347,241.75001 88.59375,241.75 L 257.1875,241.75 L 216.09375,136.65625 C 214.95965,132.74362 214.45439,129.19521 217.21875,124.53125 L 244.40625,80.34375 C 244.78901,79.4223 245.34374,75.526156 245.34375,74.40625 C 244.80506,66.38253 238.5143,60.98935 231.46875,61.34375 z M 164.71875,61.40625 C 158.10556,61.450551 151.5,66.016494 151.5,74.96875 L 151.5,168.6875 C 151.5,182.29663 133.1875,181.17671 133.1875,168.6875 L 133.1875,74.96875 C 133.1875,57.064241 106.6875,57.064238 106.6875,74.96875 L 106.6875,169.4375 C 106.6875,191.04199 122.82832,205.40624 142.09375,205.40625 C 161.88369,205.40625 177.96875,191.04199 177.96875,169.4375 L 177.96875,74.96875 C 177.96875,65.839293 171.33194,61.361949 164.71875,61.40625 z" transform="translate(-13.340081,38.737594)" id="rect2493" style="fill:#ffffff;fill-opacity:1;stroke:none"/>
      <path d="M 301.68971,104.26289 L 301.68971,166.0852 C 301.68971,181.53723 300.11615,190.12799 287.52771,190.12799 C 285.17446,190.12799 283.60091,190.12799 281.24766,189.27742 L 281.24766,215.88611 C 285.95415,217.6156 289.10126,217.6156 293.04224,217.6156 C 328.42598,217.6156 329.99953,190.99274 329.99953,175.52653 L 329.99953,130.88575 L 350.44158,130.88575 L 350.44158,215.88611 L 378.73723,215.88611 L 378.73723,104.26289 L 301.68971,104.26289" id="path2399" style="fill:#000000;fill-opacity:1;fill-rule:nonzero;stroke:none"/>
      <path d="M 388.17856,104.26289 L 426.70941,184.98204 L 412.56159,215.88611 L 443.22466,215.88611 L 488.82942,104.26289 L 458.16635,104.26289 L 441.6511,151.48374 L 421.98875,104.26289 L 388.17856,104.26289" id="path2401" style="fill:#000000;fill-opacity:1;fill-rule:nonzero;stroke:none"/>
      <path d="M 497.47689,215.88611 L 525.78671,215.88611 L 525.78671,167.80052 L 554.87623,215.88611 L 591.03966,215.88611 L 550.94943,158.35918 L 590.25997,104.26289 L 556.44979,104.26289 L 525.78671,151.48374 L 525.78671,104.26289 L 497.47689,104.26289 L 497.47689,215.88611" id="path2403" style="fill:#000000;fill-opacity:1;fill-rule:nonzero;stroke:none"/>
      <path d="M 637.43828,219.33092 C 675.17527,219.33092 692.4702,190.12799 692.4702,160.0745 C 692.4702,130.88575 675.17527,101.68283 637.43828,101.68283 C 600.48099,101.68283 583.18605,130.88575 583.18605,160.0745 C 583.18605,190.12799 600.48099,219.33092 637.43828,219.33092 z M 637.43828,192.70806 C 624.84984,192.70806 612.27557,181.53723 612.27557,160.0745 C 612.27557,138.61177 624.84984,128.30569 637.43828,128.30569 C 650.80642,128.30569 663.38069,138.61177 663.38069,160.0745 C 663.38069,181.53723 650.80642,192.70806 637.43828,192.70806" id="path2405" style="fill:#000000;fill-opacity:1;fill-rule:nonzero;stroke:none"/>
      <path d="M 706.6322,104.26289 L 706.6322,215.88611 L 734.14816,215.88611 L 773.4587,148.91785 L 773.4587,215.88611 L 800.98884,215.88611 L 800.98884,104.26289 L 773.4587,104.26289 L 734.14816,171.24533 L 734.14816,104.26289 L 706.6322,104.26289 z M 754.59021,98.252191 C 766.38479,98.252191 778.17937,93.956809 783.6939,81.070664 L 767.17866,74.209394 C 764.81123,82.800158 757.73732,83.650728 754.59021,83.650728 C 752.23697,83.650728 744.36919,82.800158 742.79563,74.209394 L 726.29456,81.070664 C 731.00105,93.956809 743.5895,98.252191 754.59021,98.252191" id="path2407" style="fill:#000000;fill-opacity:1;fill-rule:nonzero;stroke:none"/>
      <path d="M 830.87222,104.26289 L 830.87222,166.0852 C 830.87222,181.53723 829.28449,190.12799 816.71022,190.12799 C 814.35697,190.12799 812.78342,190.12799 810.416,189.27742 L 810.416,215.88611 C 815.13666,217.6156 818.28377,217.6156 822.21058,217.6156 C 857.59431,217.6156 859.16787,190.99274 859.16787,175.52653 L 859.16787,130.88575 L 879.60992,130.88575 L 879.60992,215.88611 L 907.91974,215.88611 L 907.91974,104.26289 L 830.87222,104.26289" id="path2409" style="fill:#000000;fill-opacity:1;fill-rule:nonzero;stroke:none"/>
      <path d="M 281.47448,278.53063 L 285.45799,278.53063 L 285.45799,257.81924 L 308.72109,257.81924 L 308.72109,278.53063 L 312.7046,278.53063 L 312.7046,237.93006 L 308.72109,237.93006 L 308.72109,254.55872 L 285.45799,254.55872 L 285.45799,237.93006 L 281.47448,237.93006 L 281.47448,278.53063" id="path2411" style="fill:#000000;fill-opacity:1;fill-rule:nonzero;stroke:none"/>
      <path d="M 322.84056,278.53063 L 344.6577,278.53063 L 344.6577,275.27011 L 326.82407,275.27011 L 326.82407,257.42231 L 343.94889,257.42231 L 343.94889,254.16179 L 326.82407,254.16179 L 326.82407,241.20476 L 344.6577,241.20476 L 344.6577,237.93006 L 322.84056,237.93006 L 322.84056,278.53063" id="path2413" style="fill:#000000;fill-opacity:1;fill-rule:nonzero;stroke:none"/>
      <path d="M 370.91198,278.53063 L 374.85296,278.53063 L 374.85296,272.94522 L 376.51157,272.94522 C 389.63871,272.94522 395.06819,265.17667 395.06819,257.03955 C 395.06819,247.51316 388.02263,241.20476 376.51157,241.20476 L 374.85296,241.20476 L 374.85296,236.32815 L 370.91198,236.32815 L 370.91198,241.20476 L 369.31007,241.20476 C 357.72814,241.20476 350.69675,247.51316 350.69675,257.03955 C 350.69675,265.17667 356.12623,272.94522 369.31007,272.94522 L 370.91198,272.94522 L 370.91198,278.53063 z M 374.85296,244.46528 C 388.02263,244.63539 390.91457,250.78786 390.91457,257.03955 C 390.91457,266.79276 384.43605,269.33029 374.85296,269.67052 L 374.85296,244.46528 z M 370.91198,269.67052 C 361.32888,269.33029 354.85037,266.79276 354.85037,257.03955 C 354.85037,250.78786 357.72814,244.63539 370.91198,244.46528 L 370.91198,269.67052" id="path2415" style="fill:#000000;fill-opacity:1;fill-rule:nonzero;stroke:none"/>
      <path d="M 409.45701,278.53063 L 413.28457,278.53063 L 413.28457,241.20476 L 424.08682,241.20476 L 424.08682,237.93006 L 398.66894,237.93006 L 398.66894,241.20476 L 409.45701,241.20476 L 409.45701,278.53063" id="path2417" style="fill:#000000;fill-opacity:1;fill-rule:nonzero;stroke:none"/>
      <path d="M 428.79331,278.53063 L 433.27298,278.53063 L 444.07523,260.697 L 447.50586,260.697 L 447.50586,278.53063 L 451.50355,278.53063 L 451.50355,237.93006 L 442.13309,237.93006 C 429.84235,237.93006 428.07033,246.08136 428.07033,249.68211 C 428.07033,256.54338 433.4431,260.697 439.76567,260.47018 L 428.79331,278.53063 z M 447.50586,257.42231 L 441.75034,257.42231 C 438.48982,257.42231 432.0113,257.03955 432.0113,249.28518 C 432.0113,241.75763 438.87257,241.20476 442.13309,241.20476 L 447.50586,241.20476 L 447.50586,257.42231" id="path2419" style="fill:#000000;fill-opacity:1;fill-rule:nonzero;stroke:none"/>
      <path d="M 461.69622,278.53063 L 465.67972,278.53063 L 465.67972,257.81924 L 488.94283,257.81924 L 488.94283,278.53063 L 492.92634,278.53063 L 492.92634,237.93006 L 488.94283,237.93006 L 488.94283,254.55872 L 465.67972,254.55872 L 465.67972,237.93006 L 461.69622,237.93006 L 461.69622,278.53063" id="path2421" style="fill:#000000;fill-opacity:1;fill-rule:nonzero;stroke:none"/>
      <path d="M 498.73857,278.53063 L 502.73625,278.53063 L 508.32166,265.34679 L 525.43231,265.34679 L 531.0319,278.53063 L 535.01541,278.53063 L 516.79902,236.88103 L 498.73857,278.53063 z M 509.76763,262.14297 L 516.79902,245.52849 L 524.00052,262.14297 L 509.76763,262.14297" id="path2423" style="fill:#000000;fill-opacity:1;fill-rule:nonzero;stroke:none"/>
      <path d="M 539.62266,278.53063 L 544.10233,278.53063 L 554.90458,260.697 L 558.33522,260.697 L 558.33522,278.53063 L 562.31872,278.53063 L 562.31872,237.93006 L 552.96245,237.93006 C 540.6717,237.93006 538.89968,246.08136 538.89968,249.68211 C 538.89968,256.54338 544.27245,260.697 550.58085,260.47018 L 539.62266,278.53063 z M 558.33522,257.42231 L 552.57969,257.42231 C 549.30499,257.42231 542.82648,257.03955 542.82648,249.28518 C 542.82648,241.75763 549.70192,241.20476 552.96245,241.20476 L 558.33522,241.20476 L 558.33522,257.42231" id="path2425" style="fill:#000000;fill-opacity:1;fill-rule:nonzero;stroke:none"/>
      <path d="M 585.97876,278.53063 L 589.96227,278.53063 L 589.96227,258.86828 L 608.17865,278.53063 L 613.38131,278.53063 L 593.71895,257.59242 L 613.05526,237.93006 L 608.17865,237.93006 L 589.96227,256.86944 L 589.96227,237.93006 L 585.97876,237.93006 L 585.97876,278.53063" id="path2427" style="fill:#000000;fill-opacity:1;fill-rule:nonzero;stroke:none"/>
      <path d="M 639.08272,279.80649 C 651.16082,279.80649 661.06997,271.11649 661.06997,258.31541 C 661.06997,245.52849 651.16082,236.88103 639.08272,236.88103 C 627.17473,236.88103 617.26558,245.52849 617.26558,258.31541 C 617.26558,271.11649 627.17473,279.80649 639.08272,279.80649 z M 639.08272,276.37585 C 629.17357,276.37585 621.4192,268.94754 621.4192,258.31541 C 621.4192,247.68327 629.17357,240.09902 639.08272,240.09902 C 649.00604,240.09902 656.91635,247.68327 656.91635,258.31541 C 656.91635,268.94754 649.00604,276.37585 639.08272,276.37585" id="path2429" style="fill:#000000;fill-opacity:1;fill-rule:nonzero;stroke:none"/>
      <path d="M 666.55615,278.53063 L 670.38372,278.53063 L 674.14041,248.5622 L 689.09627,280.35936 L 703.88203,248.5622 L 707.87971,278.53063 L 711.46628,278.53063 L 705.88087,236.32815 L 689.09627,272.60499 L 672.14157,236.32815 L 666.55615,278.53063" id="path2431" style="fill:#000000;fill-opacity:1;fill-rule:nonzero;stroke:none"/>
      <path d="M 718.9513,237.93006 L 718.9513,278.53063 L 722.93481,278.53063 L 722.93481,241.20476 L 746.19791,241.20476 L 746.19791,278.53063 L 750.18142,278.53063 L 750.18142,237.93006 L 718.9513,237.93006" id="path2433" style="fill:#000000;fill-opacity:1;fill-rule:nonzero;stroke:none"/>
      <path d="M 756.00783,278.53063 L 759.99133,278.53063 L 765.57675,265.34679 L 782.70157,265.34679 L 788.28698,278.53063 L 792.27049,278.53063 L 774.0541,236.88103 L 756.00783,278.53063 z M 767.02272,262.14297 L 774.0541,245.52849 L 781.2556,262.14297 L 767.02272,262.14297" id="path2435" style="fill:#000000;fill-opacity:1;fill-rule:nonzero;stroke:none"/>
      <path d="M 797.92678,278.53063 L 801.91029,278.53063 L 801.91029,257.81924 L 825.1734,257.81924 L 825.1734,278.53063 L 829.17108,278.53063 L 829.17108,237.93006 L 825.1734,237.93006 L 825.1734,254.55872 L 801.91029,254.55872 L 801.91029,237.93006 L 797.92678,237.93006 L 797.92678,278.53063" id="path2437" style="fill:#000000;fill-opacity:1;fill-rule:nonzero;stroke:none"/>
      <path d="M 839.29287,237.93006 L 839.29287,280.35936 L 867.10653,246.40742 L 867.10653,278.53063 L 871.03333,278.53063 L 871.03333,236.32815 L 843.29055,270.05328 L 843.29055,237.93006 L 839.29287,237.93006" id="path2439" style="fill:#000000;fill-opacity:1;fill-rule:nonzero;stroke:none"/>
      <path d="M 880.00685,278.53063 L 884.48652,278.53063 L 895.28877,260.697 L 898.7194,260.697 L 898.7194,278.53063 L 902.71708,278.53063 L 902.71708,237.93006 L 893.36081,237.93006 C 881.05589,237.93006 879.28386,246.08136 879.28386,249.68211 C 879.28386,256.54338 884.65663,260.697 890.97921,260.47018 L 880.00685,278.53063 z M 898.7194,257.42231 L 892.96387,257.42231 C 889.70335,257.42231 883.22484,257.03955 883.22484,249.28518 C 883.22484,241.75763 890.08611,241.20476 893.36081,241.20476 L 898.7194,241.20476 L 898.7194,257.42231" id="path2441" style="fill:#000000;fill-opacity:1;fill-rule:nonzero;stroke:none"/>
    </g>
  </g>
</svg>