<?xml version="1.0" encoding="utf-8"?>
<!-- Generator: Adobe Illustrator 16.0.0, SVG Export Plug-In . SVG Version: 6.00 Build 0)  -->
<!DOCTYPE svg [
	<!ENTITY ns_flows "http://ns.adobe.com/Flows/1.0/">
	<!ENTITY ns_extend "http://ns.adobe.com/Extensibility/1.0/">
	<!ENTITY ns_ai "http://ns.adobe.com/AdobeIllustrator/10.0/">
	<!ENTITY ns_graphs "http://ns.adobe.com/Graphs/1.0/">
]>
<svg version="1.2" baseProfile="tiny" id="Layer_1" xmlns:x="&ns_extend;" xmlns:i="&ns_ai;" xmlns:graph="&ns_graphs;"
	 xmlns="http://www.w3.org/2000/svg" xmlns:xlink="http://www.w3.org/1999/xlink" xmlns:a="http://ns.adobe.com/AdobeSVGViewerExtensions/3.0/"
	 x="0px" y="0px" width="620px" height="237px" viewBox="0 0 620 237" xml:space="preserve">
<g>
	<path fill="none" d="M415.576,159.135c-6.197,0-10.889,4.066-12.578,9.238h24.693C426.561,162.643,422.148,159.135,415.576,159.135
		z"/>
	<path fill="none" d="M342.541,159.23c-6.196,0.001-10.887,4.063-12.576,9.236h24.689
		C353.521,162.737,349.112,159.231,342.541,159.23z"/>
	<path fill="none" d="M162.958,143.514h-15.677v17.049l15.677-0.057c7.606,0,10.985-3.322,10.985-8.494
		S170.565,143.514,162.958,143.514z"/>
	<path fill="none" d="M10.719,231.164c-1.241-1.793-1.904-3.912-1.903-6.08c-0.002-1.8,0.425-3.558,1.228-5.141
		c-0.807,1.588-1.235,3.352-1.232,5.156c0.001,2.164,0.667,4.281,1.908,6.07c1.241,1.791,3.002,3.174,5.052,3.969
		C13.72,234.344,11.958,232.957,10.719,231.164z"/>
	<path fill="none" d="M533.227,174.49c0-8.377-6.477-13.275-13.424-13.275c-6.951,0-13.43,4.898-13.43,13.275
		c0,8.379,6.479,13.277,13.43,13.277C526.75,187.768,533.227,182.869,533.227,174.49z"/>
	<path fill="none" d="M227.373,174.598c0-8.375-6.48-13.273-13.428-13.273c-6.948,0-13.426,4.898-13.426,13.273
		c0,8.377,6.478,13.275,13.426,13.275C220.892,187.873,227.373,182.975,227.373,174.598z"/>
	<path fill="none" d="M10.494,219.148c0.026-0.042,0.047-0.087,0.074-0.129C10.541,219.062,10.52,219.106,10.494,219.148z"/>
	<path fill="#FF4F12" d="M54.023,175.982c-11.313,11.057-18.788,18.357-24.297,23.758c-4.904,4.801-8.234,8.098-11.333,11.184
		l-6.511,6.389c-0.495,0.531-0.934,1.103-1.315,1.707c-0.027,0.042-0.048,0.087-0.074,0.129c-0.159,0.261-0.313,0.523-0.45,0.795
		c-0.803,1.583-1.23,3.341-1.228,5.141c-0.001,2.168,0.662,4.287,1.903,6.08c1.239,1.793,3.001,3.18,5.052,3.975
		c0.142,0.055,0.282,0.117,0.431,0.17c0.148,0.047,0.276,0.082,0.47,0.125c1.713,0.527,3.496,0.801,5.289,0.816h93.261
		l-61.156-60.309l-0.01,0.01L54.023,175.982z"/>
	<path fill="#7700FF" d="M16.35,48.256C2.151,62.228,4.08,71.374,4.08,90.151v128.452c0,3.598,1.12,7.117,3.21,10.07
		c2.091,2.955,5.051,5.211,8.481,6.465c-2.05-0.795-3.811-2.178-5.052-3.969c-1.241-1.789-1.907-3.906-1.908-6.07
		c-0.003-1.805,0.426-3.568,1.232-5.156c0.138-0.271,0.291-0.534,0.45-0.795c0.026-0.042,0.047-0.087,0.074-0.129
		c0.381-0.604,0.82-1.176,1.315-1.707l6.511-6.389c3.099-3.086,6.429-6.383,11.333-11.184c5.509-5.4,12.983-12.701,24.297-23.758
		l0.032-0.031l0.01-0.01l11.014-10.781l0.226-0.215c18.306-17.904,44.351-43.412,82.595-80.868L63.915,1.438L16.35,48.256z"/>
	<path fill="#101828" d="M468.914,161.24c4.223,0,7.885,1.943,10.789,6.283l10.145-5.727c-3.381-7.111-10.703-11.449-20.844-11.449
		c-13.242,0-24.512,9.602-24.512,24.193s10.709,24.193,24.512,24.193c9.955,0,16.621-4.426,21.313-12.283v-0.053l-9.764-5.258
		c-2.814,3.879-5.822,6.65-11.639,6.65c-7.143,0-12.398-5.057-12.398-13.275S461.965,161.24,468.914,161.24z"/>
	<rect x="372.322" y="132.799" fill="#101828" width="11.834" height="64.664"/>
	<path fill="#101828" d="M545.25,174.49c0-16.07-12.678-24.191-25.447-24.191c-12.773,0-25.449,8.121-25.449,24.191
		s12.676,24.193,25.449,24.193C532.572,198.684,545.25,190.561,545.25,174.49z M506.373,174.49c0-8.377,6.479-13.275,13.43-13.275
		c6.947,0,13.424,4.898,13.424,13.275c0,8.379-6.477,13.277-13.424,13.277C512.852,187.768,506.373,182.869,506.373,174.49z"/>
	<path fill="#101828" d="M604.287,150.271c-5.729,0-11.455,2.492-14.836,7.846c-1.973-4.891-6.105-7.846-12.959-7.846
		c-2.701-0.004-5.363,0.672-7.725,1.963c-2.363,1.293-4.35,3.16-5.771,5.42v-6.094h-11.854v45.797h11.826v-25.66
		c0-7.391,4.232-11.266,8.832-11.266c5.143,0,7.508,3.229,7.508,8.77v28.156h11.832v-25.479c0-7.586,3.756-11.447,9-11.447
		c5.246,0,7.33,3.229,7.33,8.584v28.342h11.838v-32.033C619.309,156.271,613.959,150.271,604.287,150.271z"/>
	<path fill="#101828" d="M438.678,173.168c0-13.387-9.391-22.896-22.723-22.896c-13.498,0-24.51,9.691-24.51,24.195
		c0,14.5,10.986,24.191,23.943,24.191c10.232,0,16.713-3.793,21.41-11.633l-9.389-4.621c-2.912,3.605-5.541,6.283-11.834,6.283
		c-6.949,0-12.02-4.422-12.766-11.455h35.867V173.168z M402.998,168.373c1.689-5.172,6.381-9.238,12.578-9.238
		c6.572,0,10.984,3.508,12.115,9.238H402.998z"/>
	<path fill="#101828" d="M239.394,174.598c0-16.07-12.677-24.193-25.449-24.193c-12.771,0-25.44,8.123-25.44,24.193
		s12.675,24.195,25.44,24.195S239.394,190.668,239.394,174.598z M200.519,174.598c0-8.375,6.478-13.273,13.426-13.273
		c6.947,0,13.428,4.898,13.428,13.273c0,8.377-6.48,13.275-13.428,13.275C206.997,187.873,200.519,182.975,200.519,174.598z"/>
	<path fill="#101828" d="M186.344,151.088c0-11.178-8.923-18.289-23.386-18.289h-28.075v64.646h12.398v-26.23l10.518,0.059
		l15.208,26.23h14.177l-15.868-27.395C180.239,166.949,186.344,161.057,186.344,151.088z M162.958,160.506l-15.677,0.057v-17.049
		h15.677c7.606,0,10.985,3.326,10.985,8.498S170.565,160.506,162.958,160.506z"/>
	<path fill="#101828" d="M365.639,173.244c0-13.389-9.391-22.896-22.723-22.896c-13.498,0-24.51,9.697-24.51,24.193
		s10.988,24.193,23.945,24.193c10.234,0,16.711-3.795,21.41-11.633l-9.371-4.621c-2.912,3.604-5.539,6.285-11.836,6.285
		c-6.947,0-12.018-4.426-12.762-11.453h35.846V173.244z M329.965,168.467c1.689-5.174,6.38-9.235,12.576-9.236
		c6.571,0.001,10.98,3.507,12.113,9.236H329.965z"/>
	<path fill="#101828" d="M292.17,139.266v12.371h-7.2v9.42h7.2v23.088c0,11.266,6.859,14.59,14.933,14.59
		c2.679-0.004,5.342-0.434,7.885-1.262l-1.094-9.6c-1.279,0.379-2.609,0.566-3.945,0.551c-3.566,0-5.914-1.752-5.914-6.461v-20.859
		h10.138v-9.42h-10.171v-12.418H292.17z"/>
	<path fill="#101828" d="M263.214,188.904c-5.453,0-8.736-3.16-10.992-6.746l-9.482,5.914c3.216,5.727,9.295,10.617,20.28,10.617
		c11.57,0,18.41-6.641,18.41-15.236c0-7.664-4.5-11.91-15.428-14.129c-7.327-1.477-10.612-3.16-10.612-6.092l0.015,0.043
		c0-2.5,2.814-3.881,6.664-3.881c4.5,0,7.611,1.941,9.859,5.266l7.714-5.266c-3.283-5.631-8.356-9.047-17.745-9.047
		c-9.108,0-16.997,4.709-16.997,13.275c0,8.313,6.763,12.564,15.871,14.313c6.665,1.297,9.763,3.053,9.763,5.91
		C270.534,187.361,267.25,188.904,263.214,188.904z"/>
</g>
</svg>
